<svg width="145" height="14" viewBox="0 0 145 14" fill="none" xmlns="http://www.w3.org/2000/svg">
<path d="M9.072 1.768V3.96H6.096V13H3.36V3.96H0.384V1.768H9.072ZM18.8611 8.392C18.8611 8.648 18.8451 8.91467 18.8131 9.192H12.6211C12.6638 9.74667 12.8398 10.1733 13.1491 10.472C13.4691 10.76 13.8585 10.904 14.3171 10.904C14.9998 10.904 15.4745 10.616 15.7411 10.04H18.6531C18.5038 10.6267 18.2318 11.1547 17.8371 11.624C17.4531 12.0933 16.9678 12.4613 16.3811 12.728C15.7945 12.9947 15.1385 13.128 14.4131 13.128C13.5385 13.128 12.7598 12.9413 12.0771 12.568C11.3945 12.1947 10.8611 11.6613 10.4771 10.968C10.0931 10.2747 9.90113 9.464 9.90113 8.536C9.90113 7.608 10.0878 6.79733 10.4611 6.104C10.8451 5.41067 11.3785 4.87733 12.0611 4.504C12.7438 4.13067 13.5278 3.944 14.4131 3.944C15.2771 3.944 16.0451 4.12533 16.7171 4.488C17.3891 4.85067 17.9118 5.368 18.2851 6.04C18.6691 6.712 18.8611 7.496 18.8611 8.392ZM16.0611 7.672C16.0611 7.20267 15.9011 6.82933 15.5811 6.552C15.2611 6.27467 14.8611 6.136 14.3811 6.136C13.9225 6.136 13.5331 6.26933 13.2131 6.536C12.9038 6.80267 12.7118 7.18133 12.6371 7.672H16.0611ZM23.0405 5.56C23.3605 5.06933 23.7605 4.68533 24.2405 4.408C24.7205 4.12 25.2538 3.976 25.8405 3.976V6.872H25.0885C24.4058 6.872 23.8938 7.02133 23.5525 7.32C23.2112 7.608 23.0405 8.12 23.0405 8.856V13H20.3045V4.072H23.0405V5.56ZM35.5642 8.392C35.5642 8.648 35.5483 8.91467 35.5163 9.192H29.3243C29.3669 9.74667 29.5429 10.1733 29.8523 10.472C30.1723 10.76 30.5616 10.904 31.0203 10.904C31.7029 10.904 32.1776 10.616 32.4443 10.04H35.3563C35.2069 10.6267 34.9349 11.1547 34.5403 11.624C34.1563 12.0933 33.6709 12.4613 33.0843 12.728C32.4976 12.9947 31.8416 13.128 31.1163 13.128C30.2416 13.128 29.4629 12.9413 28.7803 12.568C28.0976 12.1947 27.5643 11.6613 27.1803 10.968C26.7963 10.2747 26.6043 9.464 26.6043 8.536C26.6043 7.608 26.7909 6.79733 27.1643 6.104C27.5483 5.41067 28.0816 4.87733 28.7643 4.504C29.4469 4.13067 30.2309 3.944 31.1163 3.944C31.9803 3.944 32.7483 4.12533 33.4203 4.488C34.0923 4.85067 34.6149 5.368 34.9883 6.04C35.3723 6.712 35.5642 7.496 35.5642 8.392ZM32.7643 7.672C32.7643 7.20267 32.6043 6.82933 32.2843 6.552C31.9643 6.27467 31.5643 6.136 31.0843 6.136C30.6256 6.136 30.2363 6.26933 29.9163 6.536C29.6069 6.80267 29.4149 7.18133 29.3403 7.672H32.7643ZM39.5676 10.744H43.4396V13H36.5116V10.824L40.2236 6.328H36.5436V4.072H43.3596V6.248L39.5676 10.744ZM46.3211 3.144C45.8411 3.144 45.4465 3.00533 45.1371 2.728C44.8385 2.44 44.6891 2.088 44.6891 1.672C44.6891 1.24533 44.8385 0.893333 45.1371 0.615999C45.4465 0.327999 45.8411 0.183999 46.3211 0.183999C46.7905 0.183999 47.1745 0.327999 47.4731 0.615999C47.7825 0.893333 47.9371 1.24533 47.9371 1.672C47.9371 2.088 47.7825 2.44 47.4731 2.728C47.1745 3.00533 46.7905 3.144 46.3211 3.144ZM47.6811 4.072V13H44.9451V4.072H47.6811ZM58.0799 8.392C58.0799 8.648 58.0639 8.91467 58.0319 9.192H51.8399C51.8825 9.74667 52.0585 10.1733 52.3679 10.472C52.6879 10.76 53.0772 10.904 53.5359 10.904C54.2185 10.904 54.6932 10.616 54.9599 10.04H57.8719C57.7225 10.6267 57.4505 11.1547 57.0559 11.624C56.6719 12.0933 56.1865 12.4613 55.5999 12.728C55.0132 12.9947 54.3572 13.128 53.6319 13.128C52.7572 13.128 51.9785 12.9413 51.2959 12.568C50.6132 12.1947 50.0799 11.6613 49.6959 10.968C49.3119 10.2747 49.1199 9.464 49.1199 8.536C49.1199 7.608 49.3065 6.79733 49.6799 6.104C50.0639 5.41067 50.5972 4.87733 51.2799 4.504C51.9625 4.13067 52.7465 3.944 53.6319 3.944C54.4959 3.944 55.2639 4.12533 55.9359 4.488C56.6079 4.85067 57.1305 5.368 57.5039 6.04C57.8879 6.712 58.0799 7.496 58.0799 8.392ZM55.2799 7.672C55.2799 7.20267 55.1199 6.82933 54.7999 6.552C54.4799 6.27467 54.0799 6.136 53.5999 6.136C53.1412 6.136 52.7519 6.26933 52.4319 6.536C52.1225 6.80267 51.9305 7.18133 51.8559 7.672H55.2799ZM71.4739 5.384C71.4739 6.03467 71.3245 6.632 71.0259 7.176C70.7272 7.70933 70.2685 8.14133 69.6499 8.472C69.0312 8.80267 68.2632 8.968 67.3459 8.968H65.6499V13H62.9139V1.768H67.3459C68.2419 1.768 68.9992 1.92267 69.6179 2.232C70.2365 2.54133 70.7005 2.968 71.0099 3.512C71.3192 4.056 71.4739 4.68 71.4739 5.384ZM67.1379 6.792C67.6605 6.792 68.0499 6.66933 68.3059 6.424C68.5619 6.17867 68.6899 5.832 68.6899 5.384C68.6899 4.936 68.5619 4.58933 68.3059 4.344C68.0499 4.09867 67.6605 3.976 67.1379 3.976H65.6499V6.792H67.1379ZM75.6343 5.56C75.9543 5.06933 76.3543 4.68533 76.8343 4.408C77.3143 4.12 77.8476 3.976 78.4343 3.976V6.872H77.6823C76.9996 6.872 76.4876 7.02133 76.1463 7.32C75.8049 7.608 75.6343 8.12 75.6343 8.856V13H72.8983V4.072H75.6343V5.56ZM79.198 8.536C79.198 7.608 79.3847 6.79733 79.758 6.104C80.142 5.41067 80.67 4.87733 81.342 4.504C82.0247 4.13067 82.8033 3.944 83.678 3.944C84.798 3.944 85.7313 4.23733 86.478 4.824C87.2353 5.41067 87.7313 6.23733 87.966 7.304H85.054C84.8087 6.62133 84.334 6.28 83.63 6.28C83.1287 6.28 82.7287 6.47733 82.43 6.872C82.1313 7.256 81.982 7.81067 81.982 8.536C81.982 9.26133 82.1313 9.82133 82.43 10.216C82.7287 10.6 83.1287 10.792 83.63 10.792C84.334 10.792 84.8087 10.4507 85.054 9.768H87.966C87.7313 10.8133 87.2353 11.6347 86.478 12.232C85.7207 12.8293 84.7873 13.128 83.678 13.128C82.8033 13.128 82.0247 12.9413 81.342 12.568C80.67 12.1947 80.142 11.6613 79.758 10.968C79.3847 10.2747 79.198 9.464 79.198 8.536ZM94.9175 3.976C95.9415 3.976 96.7628 4.31733 97.3815 5C98.0002 5.672 98.3095 6.6 98.3095 7.784V13H95.5895V8.152C95.5895 7.55467 95.4348 7.09067 95.1255 6.76C94.8162 6.42933 94.4002 6.264 93.8775 6.264C93.3548 6.264 92.9388 6.42933 92.6295 6.76C92.3202 7.09067 92.1655 7.55467 92.1655 8.152V13H89.4295V1.16H92.1655V5.272C92.4428 4.87733 92.8215 4.56267 93.3015 4.328C93.7815 4.09333 94.3202 3.976 94.9175 3.976ZM99.6668 8.52C99.6668 7.60267 99.8374 6.79733 100.179 6.104C100.531 5.41067 101.005 4.87733 101.603 4.504C102.2 4.13067 102.867 3.944 103.603 3.944C104.232 3.944 104.781 4.072 105.251 4.328C105.731 4.584 106.099 4.92 106.355 5.336V4.072H109.091V13H106.355V11.736C106.088 12.152 105.715 12.488 105.235 12.744C104.765 13 104.216 13.128 103.587 13.128C102.861 13.128 102.2 12.9413 101.603 12.568C101.005 12.184 100.531 11.6453 100.179 10.952C99.8374 10.248 99.6668 9.43733 99.6668 8.52ZM106.355 8.536C106.355 7.85333 106.163 7.31467 105.779 6.92C105.405 6.52533 104.947 6.328 104.403 6.328C103.859 6.328 103.395 6.52533 103.011 6.92C102.637 7.304 102.451 7.83733 102.451 8.52C102.451 9.20267 102.637 9.74667 103.011 10.152C103.395 10.5467 103.859 10.744 104.403 10.744C104.947 10.744 105.405 10.5467 105.779 10.152C106.163 9.75733 106.355 9.21867 106.355 8.536ZM113.806 1.16V13H111.07V1.16H113.806ZM119.853 13.128C118.978 13.128 118.189 12.9413 117.485 12.568C116.792 12.1947 116.242 11.6613 115.837 10.968C115.442 10.2747 115.245 9.464 115.245 8.536C115.245 7.61867 115.448 6.81333 115.853 6.12C116.258 5.416 116.813 4.87733 117.517 4.504C118.221 4.13067 119.01 3.944 119.885 3.944C120.76 3.944 121.549 4.13067 122.253 4.504C122.957 4.87733 123.512 5.416 123.917 6.12C124.322 6.81333 124.525 7.61867 124.525 8.536C124.525 9.45333 124.317 10.264 123.901 10.968C123.496 11.6613 122.936 12.1947 122.221 12.568C121.517 12.9413 120.728 13.128 119.853 13.128ZM119.853 10.76C120.376 10.76 120.818 10.568 121.181 10.184C121.554 9.8 121.741 9.25067 121.741 8.536C121.741 7.82133 121.56 7.272 121.197 6.888C120.845 6.504 120.408 6.312 119.885 6.312C119.352 6.312 118.909 6.504 118.557 6.888C118.205 7.26133 118.029 7.81067 118.029 8.536C118.029 9.25067 118.2 9.8 118.541 10.184C118.893 10.568 119.33 10.76 119.853 10.76ZM129.992 10.44L131.928 4.072H134.84L131.672 13H128.296L125.128 4.072H128.056L129.992 10.44ZM135.448 8.52C135.448 7.60267 135.619 6.79733 135.96 6.104C136.312 5.41067 136.787 4.87733 137.384 4.504C137.981 4.13067 138.648 3.944 139.384 3.944C140.013 3.944 140.563 4.072 141.032 4.328C141.512 4.584 141.88 4.92 142.136 5.336V4.072H144.872V13H142.136V11.736C141.869 12.152 141.496 12.488 141.016 12.744C140.547 13 139.997 13.128 139.368 13.128C138.643 13.128 137.981 12.9413 137.384 12.568C136.787 12.184 136.312 11.6453 135.96 10.952C135.619 10.248 135.448 9.43733 135.448 8.52ZM142.136 8.536C142.136 7.85333 141.944 7.31467 141.56 6.92C141.187 6.52533 140.728 6.328 140.184 6.328C139.64 6.328 139.176 6.52533 138.792 6.92C138.419 7.304 138.232 7.83733 138.232 8.52C138.232 9.20267 138.419 9.74667 138.792 10.152C139.176 10.5467 139.64 10.744 140.184 10.744C140.728 10.744 141.187 10.5467 141.56 10.152C141.944 9.75733 142.136 9.21867 142.136 8.536Z" fill="black"/>
</svg>
